<?xml version="1.0" encoding="UTF-8"?>
<svg xmlns="http://www.w3.org/2000/svg" xmlns:xlink="http://www.w3.org/1999/xlink" width="150pt" height="44pt" viewBox="0 0 150 44" version="1.1">
<defs>
<linearGradient id="linear0" gradientUnits="userSpaceOnUse" x1="26.648937" y1="20.603781" x2="135.66525" y2="114.39767" gradientTransform="matrix(0.173624,0,0,0.173547,-2.901157,-1.621069)">
<stop offset="0" style="stop-color:rgb(35.294118%,62.352941%,83.137255%);stop-opacity:1;"/>
<stop offset="1" style="stop-color:rgb(18.823529%,41.176471%,59.607843%);stop-opacity:1;"/>
</linearGradient>
<linearGradient id="linear1" gradientUnits="userSpaceOnUse" x1="150.96111" y1="192.35176" x2="112.03144" y2="137.27299" gradientTransform="matrix(0.173624,0,0,0.173547,-2.901157,-1.621069)">
<stop offset="0" style="stop-color:rgb(100%,83.137255%,23.137255%);stop-opacity:1;"/>
<stop offset="1" style="stop-color:rgb(100%,90.980392%,45.098039%);stop-opacity:1;"/>
</linearGradient>
<filter id="alpha" filterUnits="objectBoundingBox" x="0%" y="0%" width="100%" height="100%">
  <feColorMatrix type="matrix" in="SourceGraphic" values="0 0 0 0 1 0 0 0 0 1 0 0 0 0 1 0 0 0 1 0"/>
</filter>
<mask id="mask0">
  <g filter="url(#alpha)">
<rect x="0" y="0" width="150" height="44" style="fill:rgb(0%,0%,0%);fill-opacity:0.443137;stroke:none;"/>
  </g>
</mask>
<radialGradient id="radial0" gradientUnits="userSpaceOnUse" cx="61.518883" cy="132.28575" fx="61.518883" fy="132.28575" r="29.036913" gradientTransform="matrix(0.00000000539832,-0.0733171,0.325515,0.000000115853,-24.107848,45.484714)">
<stop offset="0" style="stop-color:rgb(72.156863%,72.156863%,72.156863%);stop-opacity:0.498039;"/>
<stop offset="1" style="stop-color:rgb(49.803922%,49.803922%,49.803922%);stop-opacity:0;"/>
</radialGradient>
<clipPath id="clip1">
  <rect width="150" height="44"/>
</clipPath>
<g id="surface6" clip-path="url(#clip1)">
<path style=" stroke:none;fill-rule:nonzero;fill:url(#radial0);" d="M 30.042969 40.972656 C 30.042969 42.148438 25.078125 43.101562 18.953125 43.101562 C 12.828125 43.101562 7.863281 42.148438 7.863281 40.972656 C 7.863281 39.796875 12.828125 38.84375 18.953125 38.84375 C 25.078125 38.84375 30.042969 39.796875 30.042969 40.972656 Z M 30.042969 40.972656 "/>
</g>
</defs>
<g id="surface1">
<path style=" stroke:none;fill-rule:nonzero;fill:rgb(39.215686%,39.215686%,39.215686%);fill-opacity:1;" d="M 56.980469 18.921875 C 56.980469 14.472656 55.699219 12.1875 53.136719 12.0625 C 52.113281 12.015625 51.121094 12.175781 50.152344 12.550781 C 49.378906 12.824219 48.855469 13.09375 48.582031 13.367188 L 48.582031 23.988281 C 50.222656 25.007812 51.679688 25.480469 52.949219 25.40625 C 55.632812 25.230469 56.980469 23.070312 56.980469 18.921875 Z M 60.140625 19.109375 C 60.140625 21.367188 59.605469 23.246094 58.527344 24.738281 C 57.328125 26.425781 55.664062 27.292969 53.539062 27.34375 C 51.933594 27.394531 50.28125 26.894531 48.582031 25.851562 L 48.582031 35.507812 L 45.832031 34.535156 L 45.832031 13.109375 C 46.285156 12.5625 46.867188 12.089844 47.570312 11.691406 C 49.207031 10.746094 51.195312 10.261719 53.535156 10.238281 L 53.574219 10.277344 C 55.714844 10.25 57.363281 11.121094 58.519531 12.882812 C 59.601562 14.5 60.140625 16.574219 60.140625 19.109375 Z M 60.140625 19.109375 "/>
<path style=" stroke:none;fill-rule:nonzero;fill:rgb(39.215686%,39.215686%,39.215686%);fill-opacity:1;" d="M 76.945312 25.441406 C 76.945312 28.472656 76.640625 30.574219 76.027344 31.742188 C 75.410156 32.910156 74.234375 33.839844 72.503906 34.535156 C 71.097656 35.082031 69.578125 35.378906 67.949219 35.429688 L 67.492188 33.714844 C 69.152344 33.492188 70.320312 33.269531 70.996094 33.046875 C 72.328125 32.597656 73.242188 31.914062 73.746094 30.996094 C 74.148438 30.25 74.347656 28.824219 74.347656 26.710938 L 74.347656 26.003906 C 72.464844 26.847656 70.496094 27.269531 68.433594 27.269531 C 67.082031 27.269531 65.886719 26.847656 64.859375 26.003906 C 63.703125 25.082031 63.125 23.914062 63.125 22.5 L 63.125 11.171875 L 65.875 10.238281 L 65.875 21.640625 C 65.875 22.859375 66.273438 23.796875 67.066406 24.457031 C 67.859375 25.113281 68.890625 25.429688 70.148438 25.40625 C 71.410156 25.378906 72.761719 24.898438 74.195312 23.953125 L 74.195312 10.648438 L 76.945312 10.648438 Z M 76.945312 25.441406 "/>
<path style=" stroke:none;fill-rule:nonzero;fill:rgb(39.215686%,39.215686%,39.215686%);fill-opacity:1;" d="M 87.679688 27.195312 C 87.351562 27.21875 87.050781 27.230469 86.773438 27.230469 C 85.21875 27.230469 84.007812 26.867188 83.140625 26.128906 C 82.277344 25.394531 81.84375 24.378906 81.84375 23.082031 L 81.84375 12.363281 L 79.960938 12.363281 L 79.960938 10.648438 L 81.84375 10.648438 L 81.84375 6.101562 L 84.589844 5.132812 L 84.589844 10.648438 L 87.679688 10.648438 L 87.679688 12.363281 L 84.589844 12.363281 L 84.589844 23.007812 C 84.589844 24.03125 84.867188 24.753906 85.421875 25.175781 C 85.894531 25.527344 86.652344 25.726562 87.679688 25.777344 Z M 87.679688 27.195312 "/>
<path style=" stroke:none;fill-rule:nonzero;fill:rgb(39.215686%,39.215686%,39.215686%);fill-opacity:1;" d="M 104.328125 26.96875 L 101.578125 26.96875 L 101.578125 16.460938 C 101.578125 15.394531 101.324219 14.472656 100.824219 13.703125 C 100.242188 12.835938 99.4375 12.402344 98.402344 12.402344 C 97.140625 12.402344 95.566406 13.058594 93.671875 14.375 L 93.671875 26.96875 L 90.921875 26.96875 L 90.921875 1.855469 L 93.671875 0.996094 L 93.671875 12.4375 C 95.429688 11.171875 97.347656 10.535156 99.433594 10.535156 C 100.890625 10.535156 102.070312 11.023438 102.972656 11.988281 C 103.875 12.957031 104.328125 14.164062 104.328125 15.605469 Z M 104.328125 26.96875 "/>
<path style=" stroke:none;fill-rule:nonzero;fill:rgb(39.215686%,39.215686%,39.215686%);fill-opacity:1;" d="M 118.941406 18.492188 C 118.941406 16.785156 118.613281 15.371094 117.960938 14.257812 C 117.1875 12.894531 115.980469 12.175781 114.347656 12.101562 C 111.335938 12.273438 109.832031 14.414062 109.832031 18.511719 C 109.832031 20.390625 110.144531 21.960938 110.773438 23.21875 C 111.582031 24.824219 112.789062 25.617188 114.402344 25.589844 C 117.429688 25.566406 118.941406 23.203125 118.941406 18.492188 Z M 121.953125 18.511719 C 121.953125 20.945312 121.324219 22.96875 120.070312 24.585938 C 118.691406 26.398438 116.78125 27.308594 114.347656 27.308594 C 111.9375 27.308594 110.054688 26.398438 108.699219 24.585938 C 107.46875 22.96875 106.855469 20.945312 106.855469 18.511719 C 106.855469 16.222656 107.519531 14.300781 108.851562 12.734375 C 110.253906 11.070312 112.101562 10.238281 114.386719 10.238281 C 116.667969 10.238281 118.527344 11.070312 119.960938 12.734375 C 121.289062 14.300781 121.953125 16.222656 121.953125 18.511719 Z M 121.953125 18.511719 "/>
<path style=" stroke:none;fill-rule:nonzero;fill:rgb(39.215686%,39.215686%,39.215686%);fill-opacity:1;" d="M 137.71875 26.96875 L 134.96875 26.96875 L 134.96875 15.867188 C 134.96875 14.648438 134.597656 13.699219 133.859375 13.015625 C 133.117188 12.332031 132.132812 12 130.902344 12.027344 C 129.59375 12.050781 128.351562 12.476562 127.171875 13.292969 L 127.171875 26.96875 L 124.425781 26.96875 L 124.425781 12.957031 C 126.007812 11.816406 127.460938 11.070312 128.792969 10.722656 C 130.046875 10.398438 131.152344 10.238281 132.105469 10.238281 C 132.761719 10.238281 133.375 10.300781 133.953125 10.425781 C 135.03125 10.671875 135.910156 11.132812 136.585938 11.804688 C 137.34375 12.550781 137.71875 13.441406 137.71875 14.488281 Z M 137.71875 26.96875 "/>
<path style=" stroke:none;fill-rule:nonzero;fill:url(#linear0);" d="M 18.675781 1.953125 C 17.261719 1.960938 15.910156 2.082031 14.722656 2.289062 C 11.21875 2.902344 10.582031 4.183594 10.582031 6.546875 L 10.582031 9.671875 L 18.859375 9.671875 L 18.859375 10.710938 L 7.476562 10.710938 C 5.074219 10.710938 2.96875 12.140625 2.308594 14.863281 C 1.546875 17.984375 1.515625 19.933594 2.308594 23.191406 C 2.898438 25.617188 4.300781 27.34375 6.707031 27.34375 L 9.550781 27.34375 L 9.550781 23.601562 C 9.550781 20.898438 11.914062 18.511719 14.722656 18.511719 L 22.988281 18.511719 C 25.289062 18.511719 27.125 16.636719 27.125 14.347656 L 27.125 6.546875 C 27.125 4.328125 25.234375 2.660156 22.988281 2.289062 C 21.566406 2.054688 20.089844 1.949219 18.675781 1.953125 Z M 14.199219 4.464844 C 15.054688 4.464844 15.753906 5.167969 15.753906 6.03125 C 15.753906 6.894531 15.054688 7.589844 14.199219 7.589844 C 13.34375 7.589844 12.648438 6.894531 12.648438 6.03125 C 12.648438 5.167969 13.34375 4.464844 14.199219 4.464844 Z M 14.199219 4.464844 "/>
<path style=" stroke:none;fill-rule:nonzero;fill:url(#linear1);" d="M 28.15625 10.710938 L 28.15625 14.347656 C 28.15625 17.167969 25.742188 19.542969 22.988281 19.542969 L 14.722656 19.542969 C 12.457031 19.542969 10.582031 21.460938 10.582031 23.707031 L 10.582031 31.507812 C 10.582031 33.726562 12.535156 35.035156 14.722656 35.671875 C 17.339844 36.433594 19.851562 36.570312 22.988281 35.671875 C 25.070312 35.074219 27.125 33.871094 27.125 31.507812 L 27.125 28.386719 L 18.859375 28.386719 L 18.859375 27.34375 L 31.261719 27.34375 C 33.667969 27.34375 34.5625 25.683594 35.402344 23.191406 C 36.265625 20.625 36.226562 18.15625 35.402344 14.863281 C 34.804688 12.496094 33.671875 10.710938 31.261719 10.710938 Z M 23.507812 30.46875 C 24.367188 30.46875 25.0625 31.164062 25.0625 32.023438 C 25.0625 32.886719 24.367188 33.589844 23.507812 33.589844 C 22.652344 33.589844 21.957031 32.886719 21.957031 32.023438 C 21.957031 31.164062 22.652344 30.46875 23.507812 30.46875 Z M 23.507812 30.46875 "/>
<path style=" stroke:none;fill-rule:nonzero;fill:rgb(39.215686%,39.215686%,39.215686%);fill-opacity:1;" d="M 143.074219 8.222656 L 143.554688 8.222656 L 143.554688 5.230469 L 144.695312 5.230469 L 144.695312 4.871094 L 141.929688 4.871094 L 141.929688 5.230469 L 143.074219 5.230469 L 143.074219 8.222656 M 145.125 8.222656 L 145.535156 8.222656 L 145.535156 5.488281 L 146.429688 8.222656 L 146.886719 8.222656 L 147.820312 5.496094 L 147.820312 8.222656 L 148.269531 8.222656 L 148.269531 4.871094 L 147.675781 4.871094 L 146.65625 7.742188 L 145.789062 4.871094 L 145.125 4.871094 L 145.125 8.222656 "/>
<use xlink:href="#surface6" mask="url(#mask0)"/>
</g>
</svg>
