<?xml version="1.0" encoding="UTF-8"?>
<svg xmlns="http://www.w3.org/2000/svg" xmlns:xlink="http://www.w3.org/1999/xlink" width="114pt" height="70pt" viewBox="0 0 114 70" version="1.1">
<defs>
<clipPath id="clip1">
  <path d="M 29 16 L 55 16 L 55 44 L 29 44 Z M 29 16 "/>
</clipPath>
<clipPath id="clip2">
  <path d="M 41.40625 16.183594 L 30.554688 22.46875 C 30.148438 22.703125 29.898438 23.136719 29.898438 23.609375 L 29.898438 36.191406 C 29.898438 36.660156 30.148438 37.09375 30.554688 37.328125 L 41.40625 43.621094 C 41.8125 43.855469 42.3125 43.855469 42.71875 43.621094 L 53.570312 37.328125 C 53.976562 37.09375 54.226562 36.660156 54.226562 36.191406 L 54.226562 23.609375 C 54.226562 23.136719 53.976562 22.703125 53.570312 22.46875 L 42.71875 16.183594 C 42.515625 16.066406 42.289062 16.007812 42.0625 16.007812 C 41.835938 16.007812 41.609375 16.066406 41.402344 16.183594 "/>
</clipPath>
<linearGradient id="linear0" gradientUnits="userSpaceOnUse" x1="-0.348" y1="0" x2="1.251" y2="0" gradientTransform="matrix(-9.806536,20.076228,-20.005257,-9.841326,46.480429,20.841846)">
<stop offset="0.3" style="stop-color:rgb(24.313725%,52.54902%,23.921569%);stop-opacity:1;"/>
<stop offset="0.5" style="stop-color:rgb(33.333333%,57.647059%,30.980392%);stop-opacity:1;"/>
<stop offset="0.8" style="stop-color:rgb(35.294118%,67.843137%,27.058824%);stop-opacity:1;"/>
</linearGradient>
<clipPath id="clip3">
  <path d="M 30 16 L 54 16 L 54 44 L 30 44 Z M 30 16 "/>
</clipPath>
<clipPath id="clip4">
  <path d="M 30.167969 36.988281 C 30.269531 37.125 30.398438 37.242188 30.550781 37.328125 L 39.863281 42.726562 L 41.414062 43.621094 C 41.644531 43.753906 41.910156 43.8125 42.171875 43.792969 C 42.257812 43.785156 42.34375 43.769531 42.425781 43.746094 L 53.875 22.710938 C 53.789062 22.617188 53.683594 22.535156 53.570312 22.46875 L 46.464844 18.347656 L 42.707031 16.179688 C 42.601562 16.117188 42.484375 16.074219 42.367188 16.042969 Z M 30.167969 36.988281 "/>
</clipPath>
<linearGradient id="linear1" gradientUnits="userSpaceOnUse" x1="-0.456" y1="0" x2="0.582" y2="0" gradientTransform="matrix(27.515995,-20.40318,20.331053,27.613612,40.417182,31.381342)">
<stop offset="0.57" style="stop-color:rgb(24.313725%,52.54902%,23.921569%);stop-opacity:1;"/>
<stop offset="0.72" style="stop-color:rgb(38.039216%,59.607843%,34.117647%);stop-opacity:1;"/>
<stop offset="1" style="stop-color:rgb(46.27451%,67.45098%,39.215686%);stop-opacity:1;"/>
</linearGradient>
<clipPath id="clip5">
  <path d="M 30 16 L 55 16 L 55 44 L 30 44 Z M 30 16 "/>
</clipPath>
<clipPath id="clip6">
  <path d="M 41.929688 16.011719 C 41.75 16.03125 41.570312 16.089844 41.40625 16.183594 L 30.585938 22.449219 L 42.253906 43.78125 C 42.417969 43.757812 42.578125 43.707031 42.722656 43.621094 L 53.574219 37.328125 C 53.910156 37.132812 54.140625 36.804688 54.207031 36.429688 L 42.3125 16.035156 C 42.222656 16.015625 42.136719 16.007812 42.046875 16.007812 C 42.011719 16.007812 41.972656 16.011719 41.9375 16.011719 "/>
</clipPath>
<linearGradient id="linear2" gradientUnits="userSpaceOnUse" x1="0.043" y1="0" x2="0.984" y2="0" gradientTransform="matrix(25.097215,0,0,25.186251,29.512815,29.896602)">
<stop offset="0.16" style="stop-color:rgb(41.960784%,74.901961%,27.843137%);stop-opacity:1;"/>
<stop offset="0.38" style="stop-color:rgb(47.45098%,70.588235%,38.039216%);stop-opacity:1;"/>
<stop offset="0.47" style="stop-color:rgb(45.882353%,67.45098%,39.215686%);stop-opacity:1;"/>
<stop offset="0.7" style="stop-color:rgb(39.607843%,61.960784%,35.294118%);stop-opacity:1;"/>
<stop offset="0.9" style="stop-color:rgb(24.313725%,52.54902%,23.921569%);stop-opacity:1;"/>
</linearGradient>
</defs>
<g id="surface1">
<path style=" stroke:none;fill-rule:nonzero;fill:rgb(40.784314%,62.352941%,38.823529%);fill-opacity:1;" d="M 56.328125 70.046875 C 55.953125 70.046875 55.578125 69.949219 55.25 69.757812 L 51.8125 67.714844 C 51.300781 67.425781 51.550781 67.324219 51.71875 67.265625 C 52.40625 67.027344 52.542969 66.972656 53.273438 66.554688 C 53.351562 66.511719 53.453125 66.527344 53.53125 66.574219 L 56.167969 68.144531 C 56.265625 68.199219 56.398438 68.199219 56.488281 68.144531 L 66.78125 62.183594 C 66.875 62.128906 66.9375 62.019531 66.9375 61.90625 L 66.9375 49.984375 C 66.9375 49.867188 66.875 49.761719 66.777344 49.703125 L 56.492188 43.746094 C 56.394531 43.6875 56.269531 43.6875 56.171875 43.746094 L 45.886719 49.703125 C 45.789062 49.757812 45.722656 49.871094 45.722656 49.984375 L 45.722656 61.902344 C 45.722656 62.015625 45.785156 62.125 45.882812 62.179688 L 48.703125 63.8125 C 50.234375 64.582031 51.167969 63.675781 51.167969 62.765625 L 51.167969 51.003906 C 51.167969 50.835938 51.300781 50.703125 51.46875 50.703125 L 52.769531 50.703125 C 52.933594 50.703125 53.066406 50.835938 53.066406 51.003906 L 53.066406 62.769531 C 53.066406 64.820312 51.953125 65.996094 50.019531 65.996094 C 49.425781 65.996094 48.957031 65.996094 47.644531 65.347656 L 44.945312 63.785156 C 44.277344 63.398438 43.867188 62.675781 43.867188 61.902344 L 43.867188 49.984375 C 43.867188 49.207031 44.277344 48.484375 44.945312 48.101562 L 55.25 42.136719 C 55.902344 41.765625 56.765625 41.765625 57.414062 42.136719 L 67.703125 48.105469 C 68.367188 48.488281 68.78125 49.210938 68.78125 49.984375 L 68.78125 61.90625 C 68.78125 62.679688 68.367188 63.398438 67.703125 63.785156 L 57.414062 69.75 C 57.082031 69.941406 56.710938 70.039062 56.328125 70.039062 "/>
<path style=" stroke:none;fill-rule:nonzero;fill:rgb(40.784314%,62.352941%,38.823529%);fill-opacity:1;" d="M 59.507812 61.832031 C 55.003906 61.832031 54.0625 59.757812 54.0625 58.019531 C 54.0625 57.855469 54.195312 57.722656 54.359375 57.722656 L 55.6875 57.722656 C 55.835938 57.722656 55.957031 57.828125 55.980469 57.976562 C 56.183594 59.335938 56.78125 60.019531 59.503906 60.019531 C 61.671875 60.019531 62.59375 59.527344 62.59375 58.375 C 62.59375 57.710938 62.332031 57.214844 58.960938 56.882812 C 56.144531 56.605469 54.402344 55.980469 54.402344 53.71875 C 54.402344 51.636719 56.15625 50.394531 59.089844 50.394531 C 62.382812 50.394531 64.015625 51.542969 64.222656 54.007812 C 64.230469 54.09375 64.199219 54.175781 64.144531 54.238281 C 64.085938 54.300781 64.007812 54.335938 63.925781 54.335938 L 62.585938 54.335938 C 62.449219 54.335938 62.328125 54.238281 62.300781 54.101562 C 61.976562 52.671875 61.199219 52.214844 59.082031 52.214844 C 56.714844 52.214844 56.441406 53.042969 56.441406 53.664062 C 56.441406 54.414062 56.765625 54.636719 59.960938 55.058594 C 63.125 55.480469 64.625 56.074219 64.625 58.304688 C 64.625 60.554688 62.753906 61.847656 59.492188 61.847656 M 72.03125 49.207031 L 72.375 49.207031 C 72.660156 49.207031 72.710938 49.007812 72.710938 48.890625 C 72.710938 48.585938 72.503906 48.585938 72.386719 48.585938 L 72.03125 48.585938 Z M 71.609375 48.226562 L 72.375 48.226562 C 72.636719 48.226562 73.152344 48.226562 73.152344 48.816406 C 73.152344 49.230469 72.890625 49.3125 72.734375 49.367188 C 73.039062 49.386719 73.058594 49.589844 73.101562 49.871094 C 73.121094 50.050781 73.15625 50.359375 73.21875 50.460938 L 72.746094 50.460938 C 72.734375 50.359375 72.660156 49.789062 72.660156 49.757812 C 72.628906 49.632812 72.585938 49.570312 72.429688 49.570312 L 72.039062 49.570312 L 72.039062 50.464844 L 71.609375 50.464844 Z M 70.691406 49.339844 C 70.691406 50.265625 71.433594 51.015625 72.347656 51.015625 C 73.269531 51.015625 74.015625 50.25 74.015625 49.339844 C 74.015625 48.410156 73.261719 47.675781 72.347656 47.675781 C 71.445312 47.675781 70.6875 48.402344 70.6875 49.335938 M 74.335938 49.34375 C 74.335938 50.441406 73.441406 51.335938 72.351562 51.335938 C 71.269531 51.335938 70.367188 50.453125 70.367188 49.34375 C 70.367188 48.21875 71.289062 47.355469 72.351562 47.355469 C 73.421875 47.355469 74.332031 48.21875 74.332031 49.34375 "/>
<path style=" stroke:none;fill-rule:evenodd;fill:rgb(20%,20%,20%);fill-opacity:1;" d="M 24.457031 23.410156 C 24.457031 22.933594 24.207031 22.5 23.800781 22.261719 L 12.886719 15.960938 C 12.703125 15.851562 12.496094 15.796875 12.289062 15.789062 L 12.175781 15.789062 C 11.964844 15.796875 11.757812 15.851562 11.570312 15.960938 L 0.660156 22.261719 C 0.253906 22.5 0 22.9375 0 23.414062 L 0.0234375 40.382812 C 0.0234375 40.617188 0.144531 40.835938 0.351562 40.953125 C 0.550781 41.078125 0.804688 41.078125 1.003906 40.953125 L 7.492188 37.226562 C 7.902344 36.980469 8.152344 36.550781 8.152344 36.078125 L 8.152344 28.148438 C 8.152344 27.675781 8.402344 27.238281 8.808594 27.003906 L 11.570312 25.410156 C 11.777344 25.289062 12.003906 25.230469 12.230469 25.230469 C 12.457031 25.230469 12.6875 25.289062 12.886719 25.40625 L 15.648438 27.003906 C 16.054688 27.238281 16.308594 27.675781 16.308594 28.148438 L 16.308594 36.078125 C 16.308594 36.546875 16.558594 36.980469 16.96875 37.226562 L 23.449219 40.949219 C 23.65625 41.070312 23.90625 41.070312 24.109375 40.949219 C 24.308594 40.832031 24.4375 40.613281 24.4375 40.378906 Z M 75.949219 32.246094 C 75.949219 32.363281 75.886719 32.472656 75.785156 32.53125 L 72.035156 34.699219 C 71.933594 34.757812 71.808594 34.757812 71.707031 34.699219 L 67.960938 32.53125 C 67.855469 32.472656 67.792969 32.363281 67.792969 32.246094 L 67.792969 27.902344 C 67.792969 27.785156 67.855469 27.675781 67.957031 27.617188 L 71.703125 25.445312 C 71.804688 25.386719 71.933594 25.386719 72.035156 25.445312 L 75.785156 27.617188 C 75.886719 27.675781 75.949219 27.785156 75.949219 27.902344 Z M 76.960938 0.0820312 C 76.757812 -0.03125 76.507812 -0.0273438 76.304688 0.0898438 C 76.105469 0.210938 75.980469 0.425781 75.980469 0.664062 L 75.980469 17.46875 C 75.980469 17.632812 75.894531 17.785156 75.75 17.867188 C 75.609375 17.949219 75.433594 17.949219 75.289062 17.867188 L 72.554688 16.289062 C 72.148438 16.050781 71.648438 16.050781 71.238281 16.289062 L 60.324219 22.609375 C 59.917969 22.84375 59.664062 23.28125 59.664062 23.753906 L 59.664062 36.402344 C 59.664062 36.875 59.917969 37.308594 60.324219 37.546875 L 71.238281 43.871094 C 71.648438 44.109375 72.148438 44.109375 72.558594 43.871094 L 83.472656 37.542969 C 83.878906 37.304688 84.132812 36.871094 84.132812 36.398438 L 84.132812 4.875 C 84.132812 4.398438 83.871094 3.957031 83.457031 3.722656 Z M 113.3125 27.789062 C 113.714844 27.554688 113.964844 27.117188 113.964844 26.648438 L 113.964844 23.582031 C 113.964844 23.109375 113.714844 22.675781 113.308594 22.4375 L 102.464844 16.117188 C 102.054688 15.878906 101.550781 15.878906 101.140625 16.117188 L 90.230469 22.441406 C 89.820312 22.679688 89.570312 23.113281 89.570312 23.585938 L 89.570312 36.226562 C 89.570312 36.703125 89.824219 37.144531 90.234375 37.378906 L 101.078125 43.582031 C 101.476562 43.8125 101.96875 43.8125 102.371094 43.589844 L 108.929688 39.929688 C 109.136719 39.8125 109.269531 39.59375 109.269531 39.355469 C 109.269531 39.117188 109.140625 38.894531 108.9375 38.78125 L 97.957031 32.457031 C 97.75 32.339844 97.625 32.121094 97.625 31.882812 L 97.625 27.917969 C 97.625 27.683594 97.746094 27.464844 97.953125 27.34375 L 101.371094 25.367188 C 101.574219 25.25 101.824219 25.25 102.027344 25.367188 L 105.445312 27.34375 C 105.648438 27.460938 105.773438 27.683594 105.773438 27.917969 L 105.773438 31.035156 C 105.773438 31.269531 105.902344 31.488281 106.105469 31.609375 C 106.308594 31.726562 106.558594 31.726562 106.765625 31.605469 Z M 113.3125 27.789062 "/>
<path style=" stroke:none;fill-rule:evenodd;fill:rgb(40.784314%,62.352941%,38.823529%);fill-opacity:1;" d="M 101.644531 27.199219 C 101.722656 27.152344 101.816406 27.152344 101.894531 27.199219 L 103.992188 28.410156 C 104.070312 28.457031 104.117188 28.539062 104.117188 28.628906 L 104.117188 31.058594 C 104.117188 31.148438 104.070312 31.234375 103.992188 31.277344 L 101.894531 32.492188 C 101.816406 32.535156 101.722656 32.535156 101.644531 32.492188 L 99.550781 31.277344 C 99.46875 31.234375 99.421875 31.148438 99.421875 31.058594 L 99.421875 28.628906 C 99.421875 28.539062 99.46875 28.457031 99.546875 28.410156 Z M 101.644531 27.199219 "/>
<g clip-path="url(#clip1)" clip-rule="nonzero">
<g clip-path="url(#clip2)" clip-rule="nonzero">
<path style=" stroke:none;fill-rule:nonzero;fill:url(#linear0);" d="M 65.195312 21.402344 L 34.609375 6.355469 L 18.929688 38.460938 L 49.511719 53.507812 Z M 65.195312 21.402344 "/>
</g>
</g>
<g clip-path="url(#clip3)" clip-rule="nonzero">
<g clip-path="url(#clip4)" clip-rule="nonzero">
<path style=" stroke:none;fill-rule:nonzero;fill:url(#linear1);" d="M 16.941406 25.851562 L 38.539062 55.183594 L 67.097656 34.007812 L 45.5 4.675781 Z M 16.941406 25.851562 "/>
</g>
</g>
<g clip-path="url(#clip5)" clip-rule="nonzero">
<g clip-path="url(#clip6)" clip-rule="nonzero">
<path style=" stroke:none;fill-rule:nonzero;fill:url(#linear2);" d="M 30.585938 16.007812 L 30.585938 43.785156 L 54.203125 43.785156 L 54.203125 16.007812 Z M 30.585938 16.007812 "/>
</g>
</g>
</g>
</svg>
